PathFileType	4	(X/Y/Z)	SUBJ11_2_walk_RCNL2025.trc
DataRate	CameraRate	NumFrames	NumMarkers	Units	OrigDataRate	OrigDataStartFrame	OrigNumFrames
100	100	8	25	mm	100	299	478
Frame#	Time	R_Shoulder			L_Shoulder			C7			J_Notch			R_Elbow			L_Elbow			R_Wrist			L_Wrist			R_Asis			L_Asis			Sacral			Thoracic			Sternum			R_Thigh_Lateral			R_Knee_Lateral			R_Shank_Lateral			R_Ankle_Lateral			R_Heel			R_Toe			L_Thigh_Lateral			L_Knee_Lateral			L_Shank_Lateral			L_Ankle_Lateral			L_Heel			L_Toe		
		X1	Y1	Z1	X2	Y2	Z2	X3	Y3	Z3	X4	Y4	Z4	X5	Y5	Z5	X6	Y6	Z6	X7	Y7	Z7	X8	Y8	Z8	X9	Y9	Z9	X10	Y10	Z10	X11	Y11	Z11	X12	Y12	Z12	X13	Y13	Z13	X14	Y14	Z14	X15	Y15	Z15	X16	Y16	Z16	X17	Y17	Z17	X18	Y18	Z18	X19	Y19	Z19	X20	Y20	Z20	X21	Y21	Z21	X22	Y22	Z22	X23	Y23	Z23	X24	Y24	Z24	X25	Y25	Z25
299	2.98000000	1047.158569	1402.503540	110.398888	1073.541870	1404.680054	-285.301575	1017.474182	1450.757935	-87.829353	1163.073853	1345.980103	-75.232185	918.149353	1078.798584	172.513763	1110.112793	1064.149658	-374.099182	927.680328	815.817719	156.876373	1282.370544	872.377228	-309.014969	1130.935547	927.909851	59.540428	1112.113037	927.194519	-227.731720	944.895020	952.330505	-75.233170	938.672363	1271.296021	-93.942299	1224.594727	1145.888306	-77.304787	1158.601807	592.824036	103.357414	1228.045898	460.020660	29.735195	1265.905762	255.330002	52.302402	1285.398438	59.329369	-23.945196	1231.507080	40.874741	-77.109489	1421.707397	51.789150	-54.698147	957.674011	591.966858	-296.244751	918.358826	448.393707	-209.180847	794.037476	272.047363	-232.196457	682.825500	116.330032	-148.140106	633.996460	144.191727	-98.693306	790.839905	44.848576	-102.265808
300	2.99000000	1060.136719	1403.385986	111.318733	1086.212646	1406.671997	-284.418945	1030.218872	1452.271240	-86.464645	1175.982178	1347.752563	-74.405037	933.985168	1078.672241	173.375381	1119.050293	1065.474854	-372.663147	944.483612	815.728516	157.856659	1287.071899	869.350952	-309.527420	1144.044434	930.513672	59.563068	1125.870361	928.204346	-227.005051	958.137207	954.051758	-75.489990	951.607239	1272.559570	-93.476990	1238.211548	1147.924438	-76.813393	1172.593750	595.919434	105.624580	1240.166870	461.379852	31.556780	1273.423584	255.438705	53.510288	1286.794556	59.016495	-23.534414	1232.229858	41.816235	-76.556084	1423.058594	48.951214	-54.240372	975.121338	591.844360	-297.795990	937.334167	448.330750	-211.819153	807.589539	276.492920	-234.190704	691.950928	124.398819	-149.959488	645.500000	155.040482	-100.160446	793.730591	44.861927	-102.678749
301	3.00000000	1073.029175	1404.763184	112.100670	1098.777954	1409.085205	-283.555847	1042.781860	1454.075317	-85.269501	1188.769287	1349.870239	-73.691200	949.969116	1079.000488	174.241974	1127.802124	1067.240356	-371.174988	961.746307	816.133698	158.972305	1291.039917	866.436646	-310.173218	1156.921265	933.248718	59.794479	1139.526489	929.607117	-226.206009	971.114868	956.178101	-75.572876	964.428284	1274.073486	-93.128723	1251.590942	1150.248779	-76.427040	1185.224976	598.745056	107.754059	1250.863403	462.392822	33.322456	1279.479736	255.352356	54.697300	1287.806152	58.851521	-23.233643	1232.734131	42.591103	-76.138634	1424.001587	47.104034	-53.778336	993.459412	591.905396	-299.464172	957.472595	448.351410	-214.567993	822.584534	281.291931	-236.314743	702.833801	132.880463	-151.960800	658.974060	166.260437	-101.790405	797.566223	45.171738	-103.387917
302	3.01000000	1085.830322	1406.538330	112.757240	1111.171265	1411.785522	-282.724518	1055.126099	1456.068237	-84.261559	1201.409058	1352.237183	-73.104973	965.976685	1079.717651	175.130264	1136.366577	1069.330444	-369.689880	979.443207	816.979584	160.206787	1294.336670	863.639923	-310.953400	1169.567627	935.986755	60.254345	1153.033203	931.302673	-225.371735	983.680298	958.641907	-75.467583	977.122131	1275.766846	-92.871040	1264.686890	1152.738403	-76.162941	1196.342896	601.085266	109.525726	1260.126587	463.032501	34.908569	1284.296265	255.128906	55.725605	1288.535034	58.789722	-23.078693	1233.074585	43.193565	-75.872284	1424.646240	46.026688	-53.439365	1012.592651	592.095459	-301.190094	978.631409	448.429443	-217.351608	839.061523	286.294312	-238.518707	715.473938	141.609665	-154.111038	674.289612	177.572739	-103.578987	802.676331	45.988194	-104.556831
303	3.02000000	1098.541382	1408.603516	113.306396	1123.332031	1414.632690	-281.950256	1067.236694	1458.166870	-83.439346	1213.881348	1354.765991	-72.654922	981.899841	1080.739502	176.059448	1144.731567	1071.610107	-368.253082	997.531342	818.188995	161.532822	1297.032349	860.951538	-311.868423	1181.999390	938.638550	60.931763	1166.360718	933.190002	-224.534637	995.681030	961.357910	-75.205688	989.678589	1277.583984	-92.667038	1277.494507	1155.301270	-76.021370	1205.916382	602.802856	110.787193	1268.090698	463.332092	36.225048	1288.156250	254.837189	56.513199	1289.072388	58.791756	-23.067112	1233.300049	43.643681	-75.742882	1425.090576	45.483116	-53.265327	1032.317993	592.399048	-302.885925	1000.649170	448.574036	-220.100204	856.985107	291.363525	-240.750778	729.779419	150.444946	-156.351151	691.205322	188.698120	-105.459991	809.450562	47.543137	-106.367783
304	3.03000000	1111.164795	1410.857788	113.766350	1135.217529	1417.496582	-281.266479	1079.119385	1460.314697	-82.785614	1226.174438	1357.384888	-72.342171	997.665466	1081.976318	177.047516	1152.875244	1073.942261	-366.895660	1015.959900	819.676453	162.920448	1299.197083	858.354645	-312.916580	1194.246582	941.158020	61.789387	1179.498657	935.185120	-223.722488	1007.020935	964.217468	-74.845375	1002.090210	1279.485718	-92.473534	1290.042236	1157.883423	-75.984413	1214.073730	603.884094	111.488297	1274.974365	463.360016	37.224602	1291.333618	254.527664	57.040997	1289.492554	58.828098	-23.173197	1233.449341	43.972775	-75.718498	1425.414307	45.272816	-53.252144	1052.334595	592.846252	-304.453735	1023.363342	448.836517	-222.758606	876.234253	296.396881	-242.958130	745.588989	159.273148	-158.603317	709.420227	199.369720	-107.300636	818.296143	50.033779	-108.996399
305	3.04000000	1123.698975	1413.220093	114.153061	1146.808838	1420.270630	-280.707825	1090.798584	1462.483154	-82.273849	1238.284546	1360.042114	-72.159401	1013.247070	1083.345093	178.109161	1160.769653	1076.205688	-365.633453	1034.681091	821.364532	164.345177	1300.895447	855.832489	-314.092422	1206.348755	943.537720	62.775864	1192.449829	937.233215	-222.959976	1017.735718	967.095398	-74.440315	1014.351013	1281.449585	-92.247406	1302.374146	1160.463257	-76.020378	1221.077637	604.434204	111.677460	1281.015015	463.204620	37.903210	1294.051147	254.226425	57.340141	1289.849365	58.880791	-23.360428	1233.550537	44.214500	-75.760178	1425.675415	45.247349	-53.370049	1072.309326	593.499817	-305.813141	1046.620361	449.302765	-225.287292	896.621887	301.333435	-245.090912	762.719910	167.988617	-160.787445	728.652466	209.340118	-108.929909	829.554443	53.546638	-112.569405
306	3.05000000	1136.135376	1415.637085	114.478142	1158.110962	1422.878540	-280.303192	1102.310913	1464.666992	-81.874863	1250.213989	1362.707397	-72.091209	1028.666382	1084.781128	179.253952	1168.390381	1078.309082	-364.467987	1053.652649	823.194763	165.788864	1302.185120	853.375427	-315.385605	1218.338013	945.794067	63.835087	1205.221069	939.311218	-222.270035	1028.023926	969.863098	-74.029755	1026.456055	1283.464233	-91.952576	1314.534302	1163.041016	-76.091385	1227.273315	604.643005	111.475548	1286.417969	462.961609	38.291573	1296.468994	253.946686	57.466125	1290.177490	58.941189	-23.590960	1233.622314	44.400394	-75.831322	1425.908691	45.303272	-53.574577	1091.968994	594.429138	-306.924744	1070.277100	450.074524	-227.658417	917.937622	306.149414	-247.109604	781.022583	176.460800	-162.843933	748.711365	218.392899	-110.200851	843.406982	57.998634	-117.113510
